<?xml version='1.0' encoding='UTF-8' standalone='no'?>
<!-- Created with Fritzing (https://fritzing.org/) -->
<svg xmlns="http://www.w3.org/2000/svg" baseProfile="tiny" x="0in" width="3.4975in" version="1.2" height="2.85312in" viewBox="0 0 251.82 205.424"  xmlns:svg="http://www.w3.org/2000/svg" y="0in">
 <g  id="watermark">
  <g >
   <g >
    <path fill="#8C8C8C"  d="M227.088,199.224c-0.604,0,-1.131,0.325,-1.422,0.809l-2.796,0l3.96,-4.071c0.146,-0.146,0.289,-0.322,0.428,-0.521c0.149,-0.222,0.228,-0.479,0.228,-0.768c0,-0.279,-0.097,-0.518,-0.287,-0.71c-0.19,-0.188,-0.444,-0.287,-0.754,-0.287l-4.636,0c-0.305,0,-0.555,0.06,-0.742,0.17c-0.219,0.13,-0.33,0.368,-0.33,0.707c0,0.329,0.111,0.562,0.33,0.692c0.188,0.111,0.438,0.168,0.742,0.168l3.148,0l-3.974,4.086c-0.146,0.147,-0.289,0.315,-0.425,0.504c-0.153,0.212,-0.23,0.472,-0.23,0.771c0,0.28,0.096,0.521,0.288,0.711c0.188,0.188,0.442,0.285,0.754,0.285l4.315,0c0.293,0.467,0.812,0.776,1.4,0.776c0.916,0,1.66,-0.744,1.66,-1.661C228.747,199.969,228.002,199.224,227.088,199.224zM227.088,201.487c-0.334,0,-0.604,-0.271,-0.604,-0.604c0,-0.333,0.27,-0.604,0.604,-0.604c0.332,0,0.604,0.271,0.604,0.604C227.691,201.218,227.42,201.487,227.088,201.487z"/>
    <path fill="#8C8C8C"  d="M210.145,189.182c-0.914,0,-1.659,0.745,-1.659,1.66c0,0.916,0.745,1.66,1.659,1.66s1.658,-0.744,1.658,-1.66C211.805,189.927,211.061,189.182,210.145,189.182zM210.146,191.445c-0.333,0,-0.604,-0.27,-0.604,-0.603s0.271,-0.603,0.604,-0.603c0.331,0,0.604,0.27,0.604,0.603S210.477,191.445,210.146,191.445z"/>
    <path fill="#8C8C8C"  d="M218.666,193.844c-0.193,-0.111,-0.439,-0.169,-0.732,-0.169l-1.465,0L216.469,191.153c0,-0.292,-0.057,-0.538,-0.166,-0.729C216.213,190.267,216.02,190.082,215.61,190.082c-0.34,0,-0.578,0.116,-0.709,0.342c-0.109,0.193,-0.167,0.438,-0.167,0.729l0,2.521l-0.481,0c-0.295,0,-0.539,0.06,-0.731,0.169c-0.228,0.129,-0.341,0.368,-0.341,0.708c0,0.412,0.185,0.603,0.341,0.692c0.192,0.111,0.438,0.168,0.731,0.168l0.481,0l0,4.362c0,0.277,0.026,0.533,0.081,0.768c0.056,0.246,0.154,0.464,0.298,0.645c0.146,0.186,0.345,0.332,0.595,0.436c0.241,0.098,0.555,0.146,0.93,0.146l0.896,0c0.292,0,0.539,-0.054,0.731,-0.166c0.154,-0.089,0.341,-0.281,0.341,-0.693c0,-0.338,-0.114,-0.578,-0.341,-0.709c-0.192,-0.109,-0.439,-0.168,-0.731,-0.168l-0.821,0c-0.138,0,-0.19,-0.019,-0.207,-0.024c-0.014,-0.034,-0.035,-0.103,-0.035,-0.231L216.471,195.412l1.465,0c0.295,0,0.541,-0.057,0.734,-0.168c0.152,-0.09,0.34,-0.28,0.34,-0.692C219.006,194.212,218.893,193.973,218.666,193.844z"/>
    <path fill="#8C8C8C"  d="M210.211,193.674l-1.191,0c-0.292,0,-0.538,0.059,-0.731,0.169c-0.226,0.129,-0.341,0.368,-0.341,0.708c0,0.412,0.188,0.604,0.341,0.691c0.193,0.113,0.439,0.168,0.731,0.168l0.544,0l0,5.362c0,0.293,0.057,0.539,0.167,0.73c0.131,0.227,0.367,0.341,0.708,0.341c0.411,0,0.604,-0.187,0.692,-0.341c0.111,-0.191,0.168,-0.438,0.168,-0.73L211.299,194.762c0,-0.386,-0.084,-0.656,-0.256,-0.83C210.868,193.76,210.598,193.674,210.211,193.674z"/>
    <path fill="#8C8C8C"  d="M206.376,193.844c-0.193,-0.111,-0.44,-0.169,-0.732,-0.169l-0.604,0c-0.25,0,-0.498,0.063,-0.734,0.187c-0.226,0.119,-0.433,0.271,-0.616,0.453l-0.644,0.604l0,-0.247c0,-0.291,-0.055,-0.538,-0.168,-0.729c-0.128,-0.228,-0.368,-0.34,-0.707,-0.34c-0.41,0,-0.604,0.184,-0.693,0.34c-0.11,0.191,-0.167,0.438,-0.167,0.729l0,4.801c-0.475,0.293,-0.791,0.816,-0.791,1.412c0,0.917,0.745,1.661,1.658,1.661c0.916,0,1.66,-0.744,1.66,-1.661c0,-0.596,-0.317,-1.119,-0.792,-1.412l0,-2.21l1.738,-1.564c0.1,-0.09,0.199,-0.164,0.297,-0.217c0.084,-0.045,0.174,-0.067,0.274,-0.067l0.288,0c0.292,0,0.539,-0.056,0.732,-0.169c0.155,-0.088,0.339,-0.279,0.339,-0.691C206.716,194.212,206.601,193.973,206.376,193.844zM202.177,201.487c-0.332,0,-0.603,-0.271,-0.603,-0.604c0,-0.333,0.271,-0.604,0.603,-0.604c0.333,0,0.604,0.271,0.604,0.604C202.781,201.218,202.51,201.487,202.177,201.487z"/>
    <path fill="#8C8C8C"  d="M199.66,190.325c-0.193,-0.111,-0.44,-0.167,-0.731,-0.167l-0.59,0c-0.2,0,-0.389,0.004,-0.562,0.016c-0.176,0.009,-0.345,0.035,-0.506,0.07c-0.168,0.041,-0.336,0.109,-0.496,0.202c-0.158,0.093,-0.319,0.222,-0.48,0.382c-0.334,0.314,-0.554,0.656,-0.652,1.017c-0.094,0.348,-0.143,0.735,-0.143,1.151l0,0.678l-0.483,0c-0.292,0,-0.539,0.059,-0.73,0.169c-0.227,0.13,-0.342,0.369,-0.342,0.708c0,0.412,0.185,0.604,0.341,0.693c0.191,0.111,0.438,0.166,0.73,0.166l0.483,0l0,5.362c0,0.293,0.057,0.539,0.167,0.73c0.13,0.227,0.367,0.341,0.708,0.341c0.411,0,0.603,-0.187,0.692,-0.341c0.111,-0.191,0.168,-0.438,0.168,-0.73l0,-5.36l0.92,0c0.293,0,0.54,-0.057,0.732,-0.168c0.155,-0.09,0.34,-0.28,0.34,-0.692c0,-0.34,-0.114,-0.579,-0.34,-0.708c-0.189,-0.111,-0.436,-0.17,-0.729,-0.17l-0.92,0l0,-0.678c0,-0.218,0.019,-0.41,0.056,-0.571c0.032,-0.141,0.103,-0.261,0.218,-0.367l0.002,-0.004l0.002,-0.002c0.082,-0.082,0.176,-0.126,0.29,-0.136c0.15,-0.015,0.339,-0.022,0.564,-0.022l0.56,0c0.291,0,0.539,-0.058,0.731,-0.168c0.154,-0.088,0.339,-0.281,0.339,-0.693C200,190.694,199.885,190.455,199.66,190.325z"/>
    <path fill="#8C8C8C"  d="M251.653,193.942c-0.089,-0.156,-0.282,-0.34,-0.693,-0.34c-0.339,0,-0.578,0.113,-0.707,0.34c-0.078,0.133,-0.127,0.293,-0.152,0.477l-0.021,-0.021c-0.216,-0.236,-0.466,-0.42,-0.747,-0.539c-0.277,-0.119,-0.563,-0.183,-0.849,-0.183l-0.709,0c-0.249,0,-0.466,0.015,-0.64,0.041c-0.182,0.026,-0.352,0.074,-0.51,0.14c-0.158,0.066,-0.313,0.15,-0.459,0.254c-0.139,0.097,-0.303,0.226,-0.486,0.377c-0.188,0.156,-0.342,0.302,-0.463,0.434c-0.127,0.141,-0.23,0.293,-0.306,0.455c-0.069,0.16,-0.122,0.337,-0.147,0.523c-0.026,0.178,-0.041,0.391,-0.041,0.631l0,2.386c0,0.24,0.015,0.451,0.041,0.631c0.025,0.188,0.078,0.361,0.147,0.521c0.074,0.164,0.179,0.318,0.306,0.457c0.119,0.129,0.274,0.274,0.463,0.433c0.186,0.153,0.35,0.28,0.486,0.379c0.146,0.103,0.299,0.188,0.459,0.254c0.158,0.065,0.329,0.112,0.51,0.14c0.174,0.026,0.389,0.039,0.64,0.039l0.709,0c0.298,0,0.591,-0.066,0.87,-0.199c0.244,-0.114,0.492,-0.291,0.73,-0.523l0,1.434c0,0.18,-0.025,0.334,-0.072,0.465c-0.043,0.119,-0.159,0.258,-0.344,0.406c-0.154,0.127,-0.309,0.217,-0.457,0.264c-0.15,0.049,-0.341,0.074,-0.563,0.074l-2.203,0c-0.293,0,-0.538,0.055,-0.732,0.166c-0.152,0.088,-0.34,0.282,-0.34,0.692c0,0.341,0.115,0.579,0.34,0.71c0.194,0.109,0.439,0.167,0.732,0.167l2.326,0c0.247,0,0.463,-0.015,0.638,-0.041c0.179,-0.026,0.351,-0.073,0.513,-0.14c0.153,-0.064,0.31,-0.15,0.455,-0.254c0.143,-0.101,0.305,-0.227,0.487,-0.379c0.185,-0.153,0.343,-0.299,0.463,-0.431c0.128,-0.141,0.229,-0.294,0.304,-0.456c0.071,-0.162,0.123,-0.338,0.148,-0.523c0.025,-0.182,0.041,-0.393,0.041,-0.631l0,-7.898C251.82,194.38,251.766,194.133,251.653,193.942zM250.084,198.402c0,0.188,-0.062,0.35,-0.188,0.49c-0.15,0.172,-0.394,0.403,-0.716,0.686l-0.002,0.003l-0.002,0.004c-0.139,0.13,-0.291,0.237,-0.453,0.325c-0.148,0.082,-0.325,0.121,-0.526,0.121L247.896,200.031c-0.222,0,-0.41,-0.021,-0.563,-0.072c-0.148,-0.049,-0.301,-0.137,-0.453,-0.264c-0.231,-0.186,-0.315,-0.322,-0.346,-0.404c-0.049,-0.131,-0.072,-0.285,-0.072,-0.465l0,-2.206c0,-0.18,0.023,-0.336,0.072,-0.467c0.029,-0.082,0.113,-0.217,0.346,-0.403c0.152,-0.127,0.305,-0.216,0.453,-0.265c0.153,-0.049,0.342,-0.072,0.563,-0.072l0.301,0c0.212,0,0.388,0.037,0.526,0.113c0.152,0.082,0.308,0.191,0.457,0.324c0.322,0.293,0.564,0.529,0.716,0.7c0.128,0.146,0.188,0.304,0.188,0.492L250.084,198.402z"/>
    <path fill="#8C8C8C"  d="M231.674,189.182c-0.914,0,-1.66,0.745,-1.66,1.66c0,0.916,0.746,1.66,1.66,1.66s1.66,-0.744,1.66,-1.66C233.334,189.927,232.588,189.182,231.674,189.182zM231.674,191.445c-0.332,0,-0.604,-0.27,-0.604,-0.603s0.271,-0.603,0.604,-0.603s0.604,0.27,0.604,0.603C232.278,191.175,232.006,191.445,231.674,191.445z"/>
    <path fill="#8C8C8C"  d="M242.36,199.45l-0.107,-3.419c-0.011,-0.178,-0.021,-0.338,-0.031,-0.489c-0.01,-0.162,-0.037,-0.322,-0.082,-0.476c-0.045,-0.158,-0.11,-0.309,-0.198,-0.453c-0.093,-0.146,-0.216,-0.289,-0.37,-0.42c-0.225,-0.192,-0.443,-0.334,-0.646,-0.416c-0.207,-0.084,-0.461,-0.127,-0.754,-0.127l-1.012,0c-0.259,0,-0.501,0.058,-0.716,0.164c-0.197,0.098,-0.39,0.203,-0.572,0.315l-0.003,0.002l-0.003,0.003l-0.837,0.555l0,-0.041c0,-0.291,-0.057,-0.539,-0.168,-0.733c-0.129,-0.226,-0.367,-0.339,-0.707,-0.339c-0.411,0,-0.604,0.185,-0.693,0.339c-0.109,0.194,-0.168,0.438,-0.168,0.733l0,6.099c0,0.295,0.059,0.539,0.168,0.734c0.09,0.153,0.282,0.338,0.693,0.338c0.34,0,0.578,-0.114,0.707,-0.338c0.111,-0.195,0.168,-0.439,0.168,-0.734L237.029,196.712l1.953,-1.215c0.04,-0.024,0.082,-0.048,0.121,-0.063c0.031,-0.016,0.07,-0.025,0.115,-0.031c0.049,-0.012,0.117,-0.016,0.195,-0.016l0.362,0c0.188,0,0.334,0.021,0.435,0.059c0.082,0.029,0.143,0.076,0.18,0.143c0.05,0.078,0.08,0.18,0.098,0.303c0.02,0.139,0.034,0.309,0.045,0.504l0.096,3.097c-0.457,0.297,-0.762,0.811,-0.762,1.394c0,0.917,0.746,1.661,1.66,1.661c0.916,0,1.66,-0.744,1.66,-1.661C243.186,200.275,242.853,199.737,242.36,199.45zM241.526,201.487c-0.334,0,-0.602,-0.271,-0.602,-0.604c0,-0.333,0.268,-0.604,0.602,-0.604c0.333,0,0.604,0.271,0.604,0.604C242.131,201.218,241.859,201.487,241.526,201.487z"/>
    <path fill="#8C8C8C"  d="M231.737,193.674l-1.193,0c-0.293,0,-0.539,0.059,-0.731,0.169c-0.226,0.129,-0.341,0.368,-0.341,0.708c0,0.412,0.186,0.604,0.341,0.691c0.192,0.113,0.438,0.168,0.731,0.168l0.545,0l0,5.362c0,0.293,0.055,0.539,0.168,0.73c0.127,0.227,0.365,0.341,0.707,0.341c0.41,0,0.604,-0.187,0.691,-0.341c0.111,-0.191,0.17,-0.438,0.17,-0.73L232.825,194.762c0,-0.386,-0.085,-0.656,-0.259,-0.83C232.394,193.76,232.121,193.674,231.737,193.674z"/>
   </g>
  </g>
 </g>
 <g partID="90380">
  <g transform="translate(82.4401,15.4606)">
   <g id="schematic">
    <rect stroke-linecap="round" x="14.85" width="78.3" stroke-width="0.9" height="135.9" fill="#FFFFFF" stroke="#000000" class="interior rect" y="14.85"/>
    <line stroke-linecap="round" y1="28.8" stroke-width="0.699999" fill="none" y2="28.8" stroke="#787878" x2="107.65" id="connector61pin" class="pin" x1="93.2499"/>
    <text stroke-width="0" x="91.8499" font-family="'Droid Sans'" fill="#8c8c8c" stroke="none" font-size="3.49999" text-anchor="end" class="text" y="29.4999">D0/RX</text>
    <g x="107.65" width="0.699999" stroke-width="0" height="0.699999" fill="none" stroke="none" id="connector61terminal" class="terminal" y="28.4499"/>
    <line stroke-linecap="round" y1="36" stroke-width="0.699999" fill="none" y2="36" stroke="#787878" x2="107.65" id="connector62pin" class="pin" x1="93.2499"/>
    <text stroke-width="0" x="91.8499" font-family="'Droid Sans'" fill="#8c8c8c" stroke="none" font-size="3.49999" text-anchor="end" class="text" y="36.6999">D1/TX</text>
    <g x="107.65" width="0.699999" stroke-width="0" height="0.699999" fill="none" stroke="none" id="connector62terminal" class="terminal" y="35.6499"/>
    <line stroke-linecap="round" y1="43.2" stroke-width="0.699999" fill="none" y2="43.2" stroke="#787878" x2="107.65" id="connector63pin" class="pin" x1="93.2499"/>
    <text stroke-width="0" x="91.8499" font-family="'Droid Sans'" fill="#8c8c8c" stroke="none" font-size="3.49999" text-anchor="end" class="text" y="43.8999">D2</text>
    <g x="107.65" width="0.699999" stroke-width="0" height="0.699999" fill="none" stroke="none" id="connector63terminal" class="terminal" y="42.8499"/>
    <line stroke-linecap="round" y1="50.4" stroke-width="0.699999" fill="none" y2="50.4" stroke="#787878" x2="107.65" id="connector64pin" class="pin" x1="93.2499"/>
    <text stroke-width="0" x="91.8499" font-family="'Droid Sans'" fill="#8c8c8c" stroke="none" font-size="3.49999" text-anchor="end" class="text" y="51.0999">D3 PWM</text>
    <g x="107.65" width="0.699999" stroke-width="0" height="0.699999" fill="none" stroke="none" id="connector64terminal" class="terminal" y="50.0499"/>
    <line stroke-linecap="round" y1="57.6" stroke-width="0.699999" fill="none" y2="57.6" stroke="#787878" x2="107.65" id="connector65pin" class="pin" x1="93.2499"/>
    <text stroke-width="0" x="91.8499" font-family="'Droid Sans'" fill="#8c8c8c" stroke="none" font-size="3.49999" text-anchor="end" class="text" y="58.2999">D4</text>
    <g x="107.65" width="0.699999" stroke-width="0" height="0.699999" fill="none" stroke="none" id="connector65terminal" class="terminal" y="57.2499"/>
    <line stroke-linecap="round" y1="64.8" stroke-width="0.699999" fill="none" y2="64.8" stroke="#787878" x2="107.65" id="connector66pin" class="pin" x1="93.2499"/>
    <text stroke-width="0" x="91.8499" font-family="'Droid Sans'" fill="#8c8c8c" stroke="none" font-size="3.49999" text-anchor="end" class="text" y="65.4999">D5 PWM</text>
    <g x="107.65" width="0.699999" stroke-width="0" height="0.699999" fill="none" stroke="none" id="connector66terminal" class="terminal" y="64.4499"/>
    <line stroke-linecap="round" y1="72" stroke-width="0.699999" fill="none" y2="72" stroke="#787878" x2="107.65" id="connector67pin" class="pin" x1="93.2499"/>
    <text stroke-width="0" x="91.8499" font-family="'Droid Sans'" fill="#8c8c8c" stroke="none" font-size="3.49999" text-anchor="end" class="text" y="72.6999">D6 PWM</text>
    <g x="107.65" width="0.699999" stroke-width="0" height="0.699999" fill="none" stroke="none" id="connector67terminal" class="terminal" y="71.6499"/>
    <line stroke-linecap="round" y1="79.2" stroke-width="0.699999" fill="none" y2="79.2" stroke="#787878" x2="107.65" id="connector68pin" class="pin" x1="93.2499"/>
    <text stroke-width="0" x="91.8499" font-family="'Droid Sans'" fill="#8c8c8c" stroke="none" font-size="3.49999" text-anchor="end" class="text" y="79.8999">D7</text>
    <g x="107.65" width="0.699999" stroke-width="0" height="0.699999" fill="none" stroke="none" id="connector68terminal" class="terminal" y="78.8499"/>
    <line stroke-linecap="round" y1="86.4" stroke-width="0.699999" fill="none" y2="86.4" stroke="#787878" x2="107.65" id="connector51pin" class="pin" x1="93.2499"/>
    <text stroke-width="0" x="91.8499" font-family="'Droid Sans'" fill="#8c8c8c" stroke="none" font-size="3.49999" text-anchor="end" class="text" y="87.0999">D8</text>
    <g x="107.65" width="0.699999" stroke-width="0" height="0.699999" fill="none" stroke="none" id="connector51terminal" class="terminal" y="86.0499"/>
    <line stroke-linecap="round" y1="93.6" stroke-width="0.699999" fill="none" y2="93.6" stroke="#787878" x2="107.65" id="connector52pin" class="pin" x1="93.2499"/>
    <text stroke-width="0" x="91.8499" font-family="'Droid Sans'" fill="#8c8c8c" stroke="none" font-size="3.49999" text-anchor="end" class="text" y="94.2999">D9 PWM</text>
    <g x="107.65" width="0.699999" stroke-width="0" height="0.699999" fill="none" stroke="none" id="connector52terminal" class="terminal" y="93.2499"/>
    <line stroke-linecap="round" y1="100.8" stroke-width="0.699999" fill="none" y2="100.8" stroke="#787878" x2="107.65" id="connector53pin" class="pin" x1="93.2499"/>
    <text stroke-width="0" x="91.8499" font-family="'Droid Sans'" fill="#8c8c8c" stroke="none" font-size="3.49999" text-anchor="end" class="text" y="101.5">D10 PWM/SS</text>
    <g x="107.65" width="0.699999" stroke-width="0" height="0.699999" fill="none" stroke="none" id="connector53terminal" class="terminal" y="100.45"/>
    <line stroke-linecap="round" y1="108" stroke-width="0.699999" fill="none" y2="108" stroke="#787878" x2="107.65" id="connector54pin" class="pin" x1="93.2499"/>
    <text stroke-width="0" x="91.8499" font-family="'Droid Sans'" fill="#8c8c8c" stroke="none" font-size="3.49999" text-anchor="end" class="text" y="108.7">D11 PWM/MOSI</text>
    <g x="107.65" width="0.699999" stroke-width="0" height="0.699999" fill="none" stroke="none" id="connector54terminal" class="terminal" y="107.65"/>
    <line stroke-linecap="round" y1="115.2" stroke-width="0.699999" fill="none" y2="115.2" stroke="#787878" x2="107.65" id="connector55pin" class="pin" x1="93.2499"/>
    <text stroke-width="0" x="91.8499" font-family="'Droid Sans'" fill="#8c8c8c" stroke="none" font-size="3.49999" text-anchor="end" class="text" y="115.9">D12/MISO</text>
    <g x="107.65" width="0.699999" stroke-width="0" height="0.699999" fill="none" stroke="none" id="connector55terminal" class="terminal" y="114.85"/>
    <line stroke-linecap="round" y1="122.4" stroke-width="0" fill="none" y2="122.4" stroke="none" x2="107.65" id="connector41pin" class="pin" x1="93.2499"/>
    <rect x="107.65" width="0.699999" stroke-width="0" height="0.699999" fill="none" stroke="none" id="connector41terminal" class="terminal" y="122.05"/>
    <line stroke-linecap="round" y1="122.4" stroke-width="0.699999" fill="none" y2="122.4" stroke="#787878" x2="107.65" id="connector56pin" class="pin" x1="93.2499"/>
    <text stroke-width="0" x="91.8499" font-family="'Droid Sans'" fill="#8c8c8c" stroke="none" font-size="3.49999" text-anchor="end" class="text" y="123.1">D13/SCK</text>
    <g x="107.65" width="0.699999" stroke-width="0" height="0.699999" fill="none" stroke="none" id="connector56terminal" class="terminal" y="122.05"/>
    <line stroke-linecap="round" y1="28.8" stroke-width="0" fill="none" y2="28.8" stroke="none" x2="14.75" id="connector43pin" class="pin" x1="0.349999"/>
    <rect x="-0.349999" width="0.699999" stroke-width="0" height="0.699999" fill="none" stroke="none" id="connector43terminal" class="terminal" y="28.4499"/>
    <line stroke-linecap="round" y1="28.8" stroke-width="0.699999" fill="none" y2="28.8" stroke="#787878" x2="14.75" id="connector85pin" class="pin" x1="0.349999"/>
    <text stroke-width="0" x="16.15" font-family="'Droid Sans'" fill="#8c8c8c" stroke="none" font-size="3.49999" text-anchor="start" class="text" y="29.4999">RESET</text>
    <g x="-0.349999" width="0.699999" stroke-width="0" height="0.699999" fill="none" stroke="none" id="connector85terminal" class="terminal" y="28.4499"/>
    <line stroke-linecap="round" y1="36" stroke-width="0.699999" fill="none" y2="36" stroke="#787878" x2="14.75" id="connector49pin" class="pin" x1="0.349999"/>
    <text stroke-width="0" x="16.15" font-family="'Droid Sans'" fill="#8c8c8c" stroke="none" font-size="3.49999" text-anchor="start" class="text" y="36.6999">RESET2</text>
    <rect x="-0.349999" width="0.699999" stroke-width="0" height="0.699999" fill="none" stroke="none" id="connector49terminal" class="terminal" y="35.6499"/>
    <line stroke-linecap="round" y1="43.2" stroke-width="0.699999" fill="none" y2="43.2" stroke="#787878" x2="14.75" id="connector58pin" class="pin" x1="0.349999"/>
    <text stroke-width="0" x="16.15" font-family="'Droid Sans'" fill="#8c8c8c" stroke="none" font-size="3.49999" text-anchor="start" class="text" y="43.8999">AREF</text>
    <g x="-0.349999" width="0.699999" stroke-width="0" height="0.699999" fill="none" stroke="none" id="connector58terminal" class="terminal" y="42.8499"/>
    <line stroke-linecap="round" y1="50.4" stroke-width="0.699999" fill="none" y2="50.4" stroke="#787878" x2="14.75" id="connector84pin" class="pin" x1="0.349999"/>
    <text stroke-width="0" x="16.15" font-family="'Droid Sans'" fill="#8c8c8c" stroke="none" font-size="3.49999" text-anchor="start" class="text" y="51.0999">ioref</text>
    <g x="-0.349999" width="0.699999" stroke-width="0" height="0.699999" fill="none" stroke="none" id="connector84terminal" class="terminal" y="50.0499"/>
    <line stroke-linecap="round" y1="64.8" stroke-width="0.699999" fill="none" y2="64.8" stroke="#787878" x2="14.75" id="connector0pin" class="pin" x1="0.349999"/>
    <text stroke-width="0" x="16.15" font-family="'Droid Sans'" fill="#8c8c8c" stroke="none" font-size="3.49999" text-anchor="start" class="text" y="65.4999">A0</text>
    <g x="-0.349999" width="0.699999" stroke-width="0" height="0.699999" fill="none" stroke="none" id="connector0terminal" class="terminal" y="64.4499"/>
    <line stroke-linecap="round" y1="72" stroke-width="0.699999" fill="none" y2="72" stroke="#787878" x2="14.75" id="connector1pin" class="pin" x1="0.349999"/>
    <text stroke-width="0" x="16.15" font-family="'Droid Sans'" fill="#8c8c8c" stroke="none" font-size="3.49999" text-anchor="start" class="text" y="72.6999">A1</text>
    <g x="-0.349999" width="0.699999" stroke-width="0" height="0.699999" fill="none" stroke="none" id="connector1terminal" class="terminal" y="71.6499"/>
    <line stroke-linecap="round" y1="79.2" stroke-width="0.699999" fill="none" y2="79.2" stroke="#787878" x2="14.75" id="connector2pin" class="pin" x1="0.349999"/>
    <text stroke-width="0" x="16.15" font-family="'Droid Sans'" fill="#8c8c8c" stroke="none" font-size="3.49999" text-anchor="start" class="text" y="79.8999">A2</text>
    <g x="-0.349999" width="0.699999" stroke-width="0" height="0.699999" fill="none" stroke="none" id="connector2terminal" class="terminal" y="78.8499"/>
    <line stroke-linecap="round" y1="86.4" stroke-width="0.699999" fill="none" y2="86.4" stroke="#787878" x2="14.75" id="connector3pin" class="pin" x1="0.349999"/>
    <text stroke-width="0" x="16.15" font-family="'Droid Sans'" fill="#8c8c8c" stroke="none" font-size="3.49999" text-anchor="start" class="text" y="87.0999">A3</text>
    <g x="-0.349999" width="0.699999" stroke-width="0" height="0.699999" fill="none" stroke="none" id="connector3terminal" class="terminal" y="86.0499"/>
    <line stroke-linecap="round" y1="93.6" stroke-width="0" fill="none" y2="93.6" stroke="none" x2="14.75" id="connector48pin" class="pin" x1="0.349999"/>
    <rect x="-0.349999" width="0.699999" stroke-width="0" height="0.699999" fill="none" stroke="none" id="connector48terminal" class="terminal" y="93.2499"/>
    <line stroke-linecap="round" y1="93.6" stroke-width="0" fill="none" y2="93.6" stroke="none" x2="14.75" id="connector45pin" class="pin" x1="0.349999"/>
    <rect x="-0.349999" width="0.699999" stroke-width="0" height="0.699999" fill="none" stroke="none" id="connector45terminal" class="terminal" y="93.2499"/>
    <line stroke-linecap="round" y1="93.6" stroke-width="0" fill="none" y2="93.6" stroke="none" x2="14.75" id="connector4pin" class="pin" x1="0.349999"/>
    <g x="-0.349999" width="0.699999" stroke-width="0" height="0.699999" fill="none" stroke="none" id="connector4terminal" class="terminal" y="93.2499"/>
    <line stroke-linecap="round" y1="93.6" stroke-width="0" fill="none" y2="93.6" stroke="none" x2="14.75" id="connector39pin" class="pin" x1="0.349999"/>
    <rect x="-0.349999" width="0.699999" stroke-width="0" height="0.699999" fill="none" stroke="none" id="connector39terminal" class="terminal" y="93.2499"/>
    <line stroke-linecap="round" y1="93.6" stroke-width="0" fill="none" y2="93.6" stroke="none" x2="14.75" id="connector47pin" class="pin" x1="0.349999"/>
    <rect x="-0.349999" width="0.699999" stroke-width="0" height="0.699999" fill="none" stroke="none" id="connector47terminal" class="terminal" y="93.2499"/>
    <line stroke-linecap="round" y1="93.6" stroke-width="0" fill="none" y2="93.6" stroke="none" x2="14.75" id="connector42pin" class="pin" x1="0.349999"/>
    <rect x="-0.349999" width="0.699999" stroke-width="0" height="0.699999" fill="none" stroke="none" id="connector42terminal" class="terminal" y="93.2499"/>
    <line stroke-linecap="round" y1="93.6" stroke-width="0.699999" fill="none" y2="93.6" stroke="#787878" x2="14.75" id="connector59pin" class="pin" x1="0.349999"/>
    <text stroke-width="0" x="16.15" font-family="'Droid Sans'" fill="#8c8c8c" stroke="none" font-size="3.49999" text-anchor="start" class="text" y="94.2999">A4/SDA</text>
    <g x="-0.349999" width="0.699999" stroke-width="0" height="0.699999" fill="none" stroke="none" id="connector59terminal" class="terminal" y="93.2499"/>
    <line stroke-linecap="round" y1="100.8" stroke-width="0" fill="none" y2="100.8" stroke="none" x2="14.75" id="connector5pin" class="pin" x1="0.349999"/>
    <g x="-0.349999" width="0.699999" stroke-width="0" height="0.699999" fill="none" stroke="none" id="connector5terminal" class="terminal" y="100.45"/>
    <line stroke-linecap="round" y1="100.8" stroke-width="0.699999" fill="none" y2="100.8" stroke="#787878" x2="14.75" id="connector60pin" class="pin" x1="0.349999"/>
    <text stroke-width="0" x="16.15" font-family="'Droid Sans'" fill="#8c8c8c" stroke="none" font-size="3.49999" text-anchor="start" class="text" y="101.5">A5/SCL</text>
    <g x="-0.349999" width="0.699999" stroke-width="0" height="0.699999" fill="none" stroke="none" id="connector60terminal" class="terminal" y="100.45"/>
    <line stroke-linecap="round" y1="136.8" stroke-width="0.699999" fill="none" y2="136.8" stroke="#787878" x2="14.75" id="connector91pin" class="pin" x1="0.349999"/>
    <text stroke-width="0" x="16.15" font-family="'Droid Sans'" fill="#8c8c8c" stroke="none" font-size="3.49999" text-anchor="start" class="text" y="137.5">N/C</text>
    <g x="-0.349999" width="0.699999" stroke-width="0" height="0.699999" fill="none" stroke="none" id="connector91terminal" class="terminal" y="136.45"/>
    <line stroke-linecap="round" y1="150.85" stroke-width="0" fill="none" y2="165.25" stroke="none" x2="57.6" id="connector88pin" class="pin" x1="57.6"/>
    <g x="57.2499" width="0.699999" stroke-width="0" height="0.699999" fill="none" stroke="none" id="connector88terminal" class="terminal" y="165.25"/>
    <line stroke-linecap="round" y1="150.85" stroke-width="0" fill="none" y2="165.25" stroke="none" x2="57.6" id="connector57pin" class="pin" x1="57.6"/>
    <g x="57.2499" width="0.699999" stroke-width="0" height="0.699999" fill="none" stroke="none" id="connector57terminal" class="terminal" y="165.25"/>
    <line stroke-linecap="round" y1="150.85" stroke-width="0" fill="none" y2="165.25" stroke="none" x2="57.6" id="connector44pin" class="pin" x1="57.6"/>
    <rect x="57.2499" width="0.699999" stroke-width="0" height="0.699999" fill="none" stroke="none" id="connector44terminal" class="terminal" y="165.25"/>
    <line stroke-linecap="round" y1="150.85" stroke-width="0" fill="none" y2="165.25" stroke="none" x2="57.6" id="connector50pin" class="pin" x1="57.6"/>
    <rect x="57.2499" width="0.699999" stroke-width="0" height="0.699999" fill="none" stroke="none" id="connector50terminal" class="terminal" y="165.25"/>
    <line stroke-linecap="round" y1="150.85" stroke-width="0.699999" fill="none" y2="165.25" stroke="#787878" x2="57.6" id="connector89pin" class="pin" x1="57.6"/>
    <g transform="matrix(1, 0, 0, 1, 58.2999, 149.45)">
     <g>
      <g transform="rotate(270)">
       <g>
        <text stroke-width="0" x="0" font-family="'Droid Sans'" fill="#8c8c8c" stroke="none" font-size="3.49999" text-anchor="start" class="text" y="0">GND</text>
       </g>
      </g>
     </g>
    </g>
    <g x="57.2499" width="0.699999" stroke-width="0" height="0.699999" fill="none" stroke="none" id="connector89terminal" class="terminal" y="165.25"/>
    <line stroke-linecap="round" y1="0.349999" stroke-width="0.699999" fill="none" y2="14.75" stroke="#787878" x2="36" id="connector86pin" class="pin" x1="36"/>
    <g transform="matrix(1, 0, 0, 1, 36.6999, 16.15)">
     <g>
      <g transform="rotate(270)">
       <g>
        <text stroke-width="0" x="0" font-family="'Droid Sans'" fill="#8c8c8c" stroke="none" font-size="3.49999" text-anchor="end" class="text" y="0">3V3</text>
       </g>
      </g>
     </g>
    </g>
    <g x="35.6499" width="0.699999" stroke-width="0" height="0.699999" fill="none" stroke="none" id="connector86terminal" class="terminal" y="-0.349999"/>
    <line stroke-linecap="round" y1="0.349999" stroke-width="0" fill="none" y2="14.75" stroke="none" x2="50.4" id="connector40pin" class="pin" x1="50.4"/>
    <rect x="50.0499" width="0.699999" stroke-width="0" height="0.699999" fill="none" stroke="none" id="connector40terminal" class="terminal" y="-0.349999"/>
    <line stroke-linecap="round" y1="0.349999" stroke-width="0" fill="none" y2="14.75" stroke="none" x2="50.4" id="connector46pin" class="pin" x1="50.4"/>
    <rect x="50.0499" width="0.699999" stroke-width="0" height="0.699999" fill="none" stroke="none" id="connector46terminal" class="terminal" y="-0.349999"/>
    <line stroke-linecap="round" y1="0.349999" stroke-width="0.699999" fill="none" y2="14.75" stroke="#787878" x2="50.4" id="connector87pin" class="pin" x1="50.4"/>
    <g transform="matrix(1, 0, 0, 1, 51.0999, 16.15)">
     <g>
      <g transform="rotate(270)">
       <g>
        <text stroke-width="0" x="0" font-family="'Droid Sans'" fill="#8c8c8c" stroke="none" font-size="3.49999" text-anchor="end" class="text" y="0">5V</text>
       </g>
      </g>
     </g>
    </g>
    <g x="50.0499" width="0.699999" stroke-width="0" height="0.699999" fill="none" stroke="none" id="connector87terminal" class="terminal" y="-0.349999"/>
    <line stroke-linecap="round" y1="0.349999" stroke-width="0.699999" fill="none" y2="14.75" stroke="#787878" x2="64.8" id="connector90pin" class="pin" x1="64.8"/>
    <g transform="matrix(1, 0, 0, 1, 65.4999, 16.15)">
     <g>
      <g transform="rotate(270)">
       <g>
        <text stroke-width="0" x="0" font-family="'Droid Sans'" fill="#8c8c8c" stroke="none" font-size="3.49999" text-anchor="end" class="text" y="0">VIN</text>
       </g>
      </g>
     </g>
    </g>
    <g x="64.4499" width="0.699999" stroke-width="0" height="0.699999" fill="none" stroke="none" id="connector90terminal" class="terminal" y="-0.349999"/>
    <text stroke-width="0" x="54.4501" font-family="'Droid Sans'" fill="#000000" stroke="none" font-size="4.25001" id="label" text-anchor="middle" class="text" y="76.4498">Arduino</text>
    <text stroke-width="0" x="54.4501" font-family="'Droid Sans'" fill="#000000" stroke="none" font-size="4.25001" id="label" text-anchor="middle" class="text" y="80.9833">Uno</text>
    <text stroke-width="0" x="54.4501" font-family="'Droid Sans'" fill="#000000" stroke="none" font-size="4.25001" id="label" text-anchor="middle" class="text" y="85.5167">(Rev3)</text>
   </g>
  </g>
 </g>
 <g partID="90980">
  <g transform="translate(0,58.3104)">
   <g id="schematic">
    <line stroke-linecap="round" y1="36.3502" stroke-width="0.432" y2="34.9102" stroke="#000000" x2="3.24" class="other" x1="3.24"/>
    <line stroke-linecap="round" y1="34.9102" stroke-width="0.72" y2="32.7502" stroke="#000000" x2="0.36" class="other" x1="3.24"/>
    <line stroke-linecap="round" y1="32.7502" stroke-width="0.72" y2="29.1502" stroke="#000000" x2="6.84" class="other" x1="0.36"/>
    <line stroke-linecap="round" y1="29.1502" stroke-width="0.72" y2="25.5501" stroke="#000000" x2="0.36" class="other" x1="6.84"/>
    <line stroke-linecap="round" y1="25.5501" stroke-width="0.72" y2="21.95" stroke="#000000" x2="6.84" class="other" x1="0.36"/>
    <line stroke-linecap="round" y1="21.95" stroke-width="0.72" y2="18.35" stroke="#000000" x2="0.36" class="other" x1="6.84"/>
    <line stroke-linecap="round" y1="18.35" stroke-width="0.72" y2="14.75" stroke="#000000" x2="6.84" class="other" x1="0.36"/>
    <line stroke-linecap="round" y1="14.75" stroke-width="0.72" y2="11.15" stroke="#000000" x2="0.36" class="other" x1="6.84"/>
    <line stroke-linecap="round" y1="11.15" stroke-width="0.72" y2="8.99002" stroke="#000000" x2="3.24" class="other" x1="0.36"/>
    <line stroke-linecap="round" y1="8.99002" stroke-width="0.432" y2="7.55001" stroke="#000000" x2="3.24" class="other" x1="3.24"/>
    <line stroke-linecap="round" y1="21.95" stroke-width="0.576" y2="18.35" stroke="#000000" x2="10.44" class="other" x1="6.84"/>
    <line stroke-linecap="round" y1="25.5501" stroke-width="0.576" y2="21.95" stroke="#000000" x2="6.84" class="other" x1="10.44"/>
    <line stroke-linecap="round" y1="18.35" stroke-width="0.576" y2="25.5501" stroke="#000000" x2="10.44" class="other" x1="10.44"/>
    <line stroke-linecap="round" y1="35.2702" stroke-width="0.432" y2="28.0701" stroke="#000000" x2="9" class="other" x1="9"/>
    <line stroke-linecap="round" y1="28.0701" stroke-width="0.432" y2="31.6702" stroke="#000000" x2="10.8" class="other" x1="9"/>
    <line stroke-linecap="round" y1="31.6702" stroke-width="0.432" y2="31.6702" stroke="#000000" x2="7.2" class="other" x1="10.8"/>
    <line stroke-linecap="round" y1="31.6702" stroke-width="0.432" y2="28.0701" stroke="#000000" x2="9" class="other" x1="7.2"/>
    <line stroke-linecap="round" y1="43.5502" stroke-width="0.699999" y2="36.3502" stroke="#787878" x2="3.24" id="connector2pin" connectorname="A" class="pin" x1="3.24"/>
    <g x="3.24" width="0.000283465" stroke-width="0" height="0.000283465" fill="none" stroke="none" id="connector2terminal" class="terminal" y="43.5502"/>
    <g transform="matrix(1, 0, 0, 1, 2.19, 39.9502)">
     <g>
      <g transform="rotate(270)">
       <g>
        <text stroke-width="0" x="0" font-family="'Droid Sans'" fill="#8c8c8c" stroke="none" font-size="2.5" text-anchor="middle" class="text" y="0">3</text>
       </g>
      </g>
     </g>
    </g>
    <line stroke-linecap="round" y1="0.35" stroke-width="0.699999" y2="7.55001" stroke="#787878" x2="3.24" id="connector0pin" connectorname="E" class="pin" x1="3.24"/>
    <g x="3.24" width="0.000283465" stroke-width="0" height="0.000283465" fill="none" stroke="none" id="connector0terminal" class="terminal" y="0.35"/>
    <g transform="matrix(1, 0, 0, 1, 2.19, 3.95)">
     <g>
      <g transform="rotate(270)">
       <g>
        <text stroke-width="0" x="0" font-family="'Droid Sans'" fill="#8c8c8c" stroke="none" font-size="2.5" text-anchor="middle" class="text" y="0">1</text>
       </g>
      </g>
     </g>
    </g>
    <line stroke-linecap="round" y1="21.95" stroke-width="0.699999" y2="21.95" stroke="#787878" x2="10.44" id="connector1pin" connectorname="S" class="pin" x1="17.64"/>
    <g x="17.64" width="0.000283465" stroke-width="0" height="0.000283465" fill="none" stroke="none" id="connector1terminal" class="terminal" y="21.95"/>
    <text stroke-width="0" x="14.04" font-family="'Droid Sans'" fill="#8c8c8c" stroke="none" font-size="2.5" text-anchor="middle" class="text" y="20.9001">2</text>
   </g>
  </g>
 </g>
 <g partID="95540">
  <g transform="translate(238.14,130.444)">
   <g id="schematic">
    <g>
     <path d="M13.5,14.966L9.9,14.966c-0.193,0,-0.35,-0.156,-0.35,-0.35s0.156,-0.35,0.35,-0.35L13.5,14.266c0.193,0,0.35,0.156,0.35,0.35S13.694,14.966,13.5,14.966z"/>
    </g>
    <g>
     <path d="M9.9,14.966L6.3,14.966c-0.193,0,-0.35,-0.156,-0.35,-0.35s0.157,-0.35,0.35,-0.35l3.6,0c0.193,0,0.35,0.156,0.35,0.35S10.093,14.966,9.9,14.966z"/>
    </g>
    <g>
     <polygon fill="#FFFFFF" points="9.9,14.616,6.3,7.416,9.9,7.416,13.5,7.416"/>
     <path d="M9.9,15.398L5.734,7.066l8.333,0L9.9,15.398zM6.866,7.766L9.9,13.834l3.034,-6.068L6.866,7.766z"/>
    </g>
    <g>
     <path d="M9.9,14.841c-0.124,0,-0.225,-0.101,-0.225,-0.225l0,-7.2c0,-0.124,0.101,-0.225,0.225,-0.225s0.225,0.101,0.225,0.225l0,7.2C10.124,14.74,10.024,14.841,9.9,14.841z"/>
    </g>
    <g>
     <path d="M1.8,12.141c-0.058,0,-0.115,-0.021,-0.159,-0.065c-0.088,-0.088,-0.088,-0.23,0,-0.318l2.34,-2.341c0.088,-0.088,0.23,-0.088,0.318,0s0.088,0.23,0,0.318l-2.34,2.341C1.915,12.12,1.858,12.141,1.8,12.141z"/>
    </g>
    <g>
     <path d="M2.16,15.381c-0.058,0,-0.115,-0.021,-0.159,-0.065c-0.088,-0.088,-0.088,-0.23,0,-0.318l2.34,-2.34c0.088,-0.088,0.23,-0.088,0.318,0s0.088,0.23,0,0.318l-2.34,2.34C2.276,15.359,2.218,15.381,2.16,15.381z"/>
    </g>
    <g id="connector0pin">
     <path fill="#787878" d="M9.9,22.166c-0.193,0,-0.35,-0.156,-0.35,-0.35l0,-7.2c0,-0.193,0.156,-0.35,0.35,-0.35s0.35,0.156,0.35,0.35l0,7.2C10.249,22.01,10.093,22.166,9.9,22.166z"/>
    </g>
    <g id="connector0terminal">
     <rect x="9.9" width="0.001" height="0.001" fill="none" y="21.816"/>
    </g>
    <g transform="matrix(1, 0, 0, 1, 3.429, 6.4262)">
     <g>
      <g transform="rotate(270)">
       <g>
        <g enable-background="new    ">
         <path fill="#787878" d="M-11.647,5.54l-0.891,0L-12.538,5.388l0.342,-0.372c0.049,-0.053,0.093,-0.101,0.131,-0.145s0.071,-0.086,0.099,-0.128c0.026,-0.042,0.047,-0.084,0.062,-0.125c0.015,-0.043,0.021,-0.088,0.021,-0.138c0,-0.038,-0.005,-0.072,-0.017,-0.102s-0.027,-0.054,-0.047,-0.075c-0.021,-0.02,-0.045,-0.035,-0.073,-0.046s-0.06,-0.016,-0.094,-0.016c-0.062,0,-0.118,0.013,-0.167,0.038c-0.051,0.024,-0.098,0.057,-0.143,0.096l-0.1,-0.116c0.025,-0.023,0.055,-0.046,0.084,-0.065c0.029,-0.021,0.063,-0.039,0.097,-0.054s0.071,-0.026,0.109,-0.036c0.038,-0.008,0.079,-0.013,0.121,-0.013c0.063,0,0.119,0.009,0.169,0.026c0.051,0.018,0.094,0.043,0.129,0.076c0.035,0.032,0.063,0.072,0.082,0.119c0.019,0.048,0.028,0.101,0.028,0.16c0,0.056,-0.009,0.108,-0.026,0.158c-0.017,0.05,-0.041,0.1,-0.07,0.148c-0.031,0.048,-0.066,0.097,-0.109,0.146c-0.041,0.049,-0.087,0.1,-0.136,0.152L-12.32,5.37l0,0.008l0.673,0L-11.647,5.54z"/>
        </g>
       </g>
      </g>
     </g>
    </g>
    <g id="connector1pin">
     <path fill="#787878" d="M9.9,7.766c-0.193,0,-0.35,-0.157,-0.35,-0.35l0,-7.2c0,-0.193,0.156,-0.35,0.35,-0.35s0.35,0.157,0.35,0.35l0,7.2C10.249,7.609,10.093,7.766,9.9,7.766z"/>
    </g>
    <g id="connector1terminal">
     <polygon fill="none" points="9.9,0.216,9.901,0.216,9.901,0.216"/>
    </g>
    <g transform="matrix(1, 0, 0, 1, 3.429, 1.3462)">
     <g>
      <g transform="rotate(270)">
       <g>
        <g enable-background="new    ">
         <path fill="#787878" d="M-2.616,5.54l-0.172,0L-2.788,4.648c0,-0.028,0,-0.058,0,-0.09s0.001,-0.063,0.002,-0.095c0.001,-0.032,0.002,-0.063,0.003,-0.092c0.001,-0.028,0.002,-0.054,0.002,-0.076c-0.011,0.012,-0.021,0.021,-0.029,0.03s-0.017,0.017,-0.026,0.024s-0.018,0.016,-0.028,0.025c-0.01,0.008,-0.021,0.019,-0.035,0.03l-0.145,0.118l-0.094,-0.12l0.374,-0.292l0.146,0L-2.618,5.54z"/>
        </g>
       </g>
      </g>
     </g>
    </g>
    <g>
     <path d="M0.18,13.536l1.08,-2.521l1.44,1.438L0.18,13.536z"/>
    </g>
    <g>
     <path d="M0.54,16.776l1.08,-2.521l1.438,1.438L0.54,16.776z"/>
    </g>
   </g>
  </g>
 </g>
 <g partID="98040">
  <line stroke-linecap="round" y1="109.327" stroke-width="0.699998" y2="109.061" stroke="#404040" x2="190.44" x1="248.84"/>
 </g>
 <g partID="98050">
  <line stroke-linecap="round" y1="130.66" stroke-width="0.699998" y2="109.327" stroke="#404040" x2="248.84" x1="248.04"/>
 </g>
 <g partID="98220">
  <line stroke-linecap="round" y1="181.327" stroke-width="0.699998" y2="152.261" stroke="#404040" x2="248.04" x1="247.773"/>
 </g>
 <g partID="98230">
  <line stroke-linecap="round" y1="181.061" stroke-width="0.699998" y2="181.327" stroke="#404040" x2="247.773" x1="140.04"/>
 </g>
 <circle cx="140.04" stroke-width="0" cy="181.061" fill="black" r="1.44" stroke="none"/>
 <g partID="98340">
  <line stroke-linecap="round" y1="181.327" stroke-width="0.699998" y2="181.061" stroke="#404040" x2="140.04" x1="3.50681"/>
 </g>
 <circle cx="140.04" stroke-width="0" cy="181.061" fill="black" r="1.44" stroke="none"/>
 <g partID="98350">
  <line stroke-linecap="round" y1="101.861" stroke-width="0.699998" y2="181.327" stroke="#404040" x2="3.50681" x1="3.24014"/>
 </g>
 <g partID="98480">
  <line stroke-linecap="round" y1="80.5272" stroke-width="0.699998" y2="80.2606" stroke="#404040" x2="82.4401" x1="17.9068"/>
 </g>
 <g partID="98490">
  <line stroke-linecap="round" y1="80.2606" stroke-width="0.699998" y2="80.5272" stroke="#404040" x2="17.9068" x1="17.6401"/>
 </g>
 <g partID="98620">
  <line stroke-linecap="round" y1="1.06056" stroke-width="0.699998" y2="15.4606" stroke="#404040" x2="132.84" x1="133.107"/>
 </g>
 <g partID="98560">
  <line stroke-linecap="round" y1="1.06056" stroke-width="0.699998" y2="1.06056" stroke="#404040" x2="133.107" x1="3.50681"/>
 </g>
 <g partID="98570">
  <line stroke-linecap="round" y1="58.6606" stroke-width="0.699998" y2="1.06056" stroke="#404040" x2="3.50681" x1="3.24014"/>
 </g>
 <g partID="90980" id="partLabel">
  <g transform="translate(15.3233,62.0437)">
   <g font-style="normal" fill-opacity="1" font-family="'DroidSans'" fill="#000000" stroke="none" font-size="5" font-weight="normal" id="schematicLabel">
    <text x="0" y="3.75">Delay</text>
    <text x="0" y="8.75">10k&#x3a9;</text>
   </g>
  </g>
 </g>
 <g partID="95540" id="partLabel">
  <g transform="translate(227.286,134.177)">
   <g font-style="normal" fill-opacity="1" font-family="'DroidSans'" fill="#000000" stroke="none" font-size="5" font-weight="normal" id="schematicLabel">
    <text x="0" y="3.75">LED</text>
   </g>
  </g>
 </g>
</svg>
